<?xml version="1.0" standalone="no"?>
<!DOCTYPE svg PUBLIC "-//W3C//DTD SVG 20010904//EN"
 "http://www.w3.org/TR/2001/REC-SVG-20010904/DTD/svg10.dtd">
<svg version="1.0" xmlns="http://www.w3.org/2000/svg"
width="450" height="100" viewBox="0 0 450 600">

<g transform="translate(0.000000,500.000000) scale(0.100000,-0.100000)"
fill="#363062" stroke="none">
<path d="M3755 2941 c-203 -53 -236 -326 -52 -423 59 -31 165 -31 224 0 159
83 161 322 3 402 -44 22 -131 33 -175 21z m117 -130 c30 -27 33 -34 33 -89 0
-50 -4 -65 -23 -85 -70 -74 -168 -14 -159 97 4 40 11 55 36 78 40 36 72 35
113 -1z"/>
<path d="M1520 2720 l0 -220 60 0 60 0 0 116 c0 76 3 113 10 109 6 -4 26 -38
45 -76 29 -57 40 -69 59 -69 20 0 32 14 68 78 l43 77 3 -117 3 -118 64 0 65 0
0 220 0 220 -68 0 -67 0 -54 -107 -53 -107 -27 47 c-15 26 -40 74 -56 107
l-29 60 -63 0 -63 0 0 -220z"/>
<path d="M2080 2720 l0 -220 75 0 75 0 0 220 0 220 -75 0 -75 0 0 -220z"/>
<path d="M2310 2720 l0 -220 55 0 54 0 3 116 3 117 90 -117 89 -116 63 0 63 0
0 220 0 220 -55 0 -55 0 0 -115 c0 -63 -3 -115 -7 -115 -5 0 -45 52 -91 115
l-83 115 -65 0 -64 0 0 -220z"/>
<path d="M2790 2895 l0 -45 45 0 45 0 0 -175 0 -175 75 0 75 0 2 173 3 172 43
3 42 3 0 45 0 44 -165 0 -165 0 0 -45z"/>
<path d="M3370 2720 l0 -220 75 0 75 0 0 220 0 220 -75 0 -75 0 0 -220z"/>
<path d="M3188 2608 c-17 -13 -21 -28 -19 -60 2 -27 30 -48 66 -48 41 0 65 22
65 60 0 16 -7 36 -16 44 -19 19 -74 21 -96 4z"/>
<path d="M4116 2604 c-22 -21 -20 -67 2 -87 22 -20 71 -22 97 -3 11 8 18 26
18 46 0 20 -7 38 -18 46 -25 19 -80 18 -99 -2z"/>
</g>
</svg>
