<?xml version="1.0" standalone="no"?>
<!DOCTYPE svg PUBLIC "-//W3C//DTD SVG 20010904//EN"
 "http://www.w3.org/TR/2001/REC-SVG-20010904/DTD/svg10.dtd">
<svg version="1.0" xmlns="http://www.w3.org/2000/svg"
 width="500.000000pt" height="500.000000pt" viewBox="0 0 500.000000 500.000000"
 preserveAspectRatio="xMidYMid meet">

<g transform="translate(0.000000,500.000000) scale(0.100000,-0.100000)"
fill="#363062" stroke="none">
<path d="M2123 3474 c-22 -22 -25 -32 -20 -67 5 -40 3 -43 -37 -72 -54 -39
-87 -106 -94 -192 -5 -66 -5 -67 14 -48 19 18 19 18 22 -19 3 -32 -1 -43 -27
-65 l-31 -26 11 -70 c15 -94 22 -97 15 -5 l-6 75 17 -80 c9 -44 18 -75 20 -68
2 6 -2 45 -10 87 -19 101 -4 108 18 8 9 -42 22 -81 27 -87 7 -7 8 -3 4 10 -9
31 -36 149 -36 158 0 5 4 6 8 3 5 -3 17 -36 27 -73 20 -76 29 -94 92 -171 25
-30 49 -66 54 -80 7 -17 13 -22 17 -15 5 8 13 9 22 3 22 -14 35 -12 59 8 21
17 21 17 -34 17 -44 0 -59 4 -66 18 -6 9 -32 44 -59 77 -37 44 -54 76 -69 127
l-18 69 36 71 c26 52 50 82 87 111 29 22 62 55 74 72 l23 32 51 -49 c28 -27
70 -64 93 -81 50 -39 69 -100 60 -196 -5 -59 -7 -63 -61 -111 -58 -52 -87
-104 -85 -152 1 -19 5 -11 14 27 12 47 23 63 75 113 l62 58 13 94 c34 247 -35
396 -186 398 -47 1 -47 1 -46 35 1 26 -6 40 -27 58 -35 31 -71 30 -103 -2z"/>
<path d="M2172 3129 c-31 -12 -28 -14 22 -14 44 0 53 8 18 17 -10 3 -28 1 -40
-3z"/>
<path d="M2305 3120 c-4 -6 6 -7 24 -4 19 4 37 2 46 -6 9 -7 15 -8 15 -2 0 21
-73 31 -85 12z"/>
<path d="M2265 3015 c2 -27 7 -58 11 -69 6 -16 4 -17 -17 -11 -18 5 -21 4 -9
-4 30 -21 43 -13 35 22 -4 17 -11 50 -16 72 -8 39 -8 38 -4 -10z"/>
<path d="M2320 3016 c0 -9 7 -16 16 -16 9 0 14 5 12 12 -6 18 -28 21 -28 4z"/>
<path d="M2160 3004 c0 -9 5 -14 12 -12 18 6 21 28 4 28 -9 0 -16 -7 -16 -16z"/>
<path d="M3445 2921 c-3 -5 -1 -12 5 -16 5 -3 10 1 10 9 0 18 -6 21 -15 7z"/>
<path d="M2171 2901 c-12 -21 14 -62 51 -82 35 -19 30 -2 -7 19 -50 30 -48 80
3 53 30 -15 74 -23 67 -11 -3 5 -15 10 -26 10 -11 0 -33 7 -49 15 -27 14 -30
14 -39 -4z"/>
<path d="M3298 2845 c-52 -30 -52 -29 -25 -72 44 -72 42 -74 -36 -38 -40 18
-109 42 -155 54 -46 12 -98 31 -115 41 -36 21 -107 18 -107 -5 0 -8 -8 -11
-20 -8 -27 7 -26 -19 0 -62 l20 -33 -52 -30 c-224 -126 -280 -428 -117 -633
l31 -39 129 0 128 0 -8 23 c-7 19 -4 24 23 37 17 8 31 20 31 25 0 6 -41 13
-91 16 -110 7 -152 27 -173 82 -12 33 -12 48 2 118 9 45 17 82 19 84 2 1 15 5
31 9 25 6 26 5 16 -12 -16 -26 -6 -48 25 -54 14 -3 23 -1 20 3 -3 5 -11 9 -19
9 -26 0 -26 20 2 67 l28 48 6 -44 c6 -47 36 -81 71 -81 30 0 76 28 83 50 5 15
15 20 45 20 39 0 39 0 33 -35 -5 -28 -2 -35 11 -35 9 0 25 14 34 31 36 64 40
67 62 40 41 -48 14 -124 -61 -168 -34 -20 -37 -44 -11 -102 l19 -41 19 21 c41
45 138 109 191 126 l56 17 -7 74 c-3 43 -17 101 -32 140 -42 103 -45 130 -27
190 15 48 15 56 0 105 -26 82 -34 89 -79 62z m-377 -182 c16 -19 107 -63 131
-63 38 0 93 -91 82 -135 -5 -21 -12 -25 -40 -25 -27 0 -34 4 -34 19 0 10 -9
30 -21 45 -27 35 -76 35 -117 1 -37 -31 -44 -31 -37 -2 8 31 -11 77 -31 77
-11 0 -14 5 -10 16 3 9 6 19 6 23 0 12 40 61 50 61 4 0 14 -7 21 -17z m-53
-139 c2 -33 -2 -48 -23 -73 -24 -28 -55 -42 -55 -24 0 4 10 37 22 75 26 80 51
90 56 22z m162 -24 c41 -41 10 -121 -52 -136 -21 -4 -33 0 -52 20 -28 27 -33
55 -14 89 26 49 83 62 118 27z"/>
<path d="M2875 2593 c11 -3 27 -10 35 -17 13 -10 13 -9 1 7 -7 9 -23 16 -35
16 -20 -1 -20 -2 -1 -6z"/>
<path d="M2990 2558 c19 -5 43 -17 53 -25 10 -10 17 -12 17 -5 0 15 -54 42
-82 41 -17 -1 -14 -3 12 -11z"/>
<path d="M2822 2488 c6 -18 28 -21 28 -4 0 9 -7 16 -16 16 -9 0 -14 -5 -12
-12z"/>
<path d="M2950 2456 c0 -9 7 -16 16 -16 17 0 14 22 -4 28 -7 2 -12 -3 -12 -12z"/>
<path d="M1803 2535 c-86 -26 -176 -95 -209 -157 -19 -37 -46 -223 -38 -267 9
-47 36 -101 64 -126 l23 -20 -8 23 c-8 28 10 78 32 86 9 4 36 -9 63 -29 50
-36 70 -43 70 -23 0 21 -63 183 -81 210 -11 14 -19 28 -19 30 0 3 43 31 96 64
53 32 112 77 130 98 38 45 55 103 33 117 -20 13 -108 10 -156 -6z"/>
<path d="M2095 2382 c43 -21 75 -65 75 -104 0 -14 18 -59 40 -102 49 -95 54
-153 15 -210 -28 -41 -34 -66 -11 -47 10 8 19 6 39 -9 l27 -21 70 34 71 34
-35 21 c-38 23 -54 60 -38 89 9 14 0 29 -45 81 -74 83 -60 94 36 30 l35 -22
-32 58 c-29 54 -33 76 -13 76 4 0 23 -22 42 -50 27 -39 38 -49 54 -44 30 10
30 10 -4 53 -63 79 -174 134 -296 145 l-70 7 40 -19z"/>
<path d="M1996 2359 c-14 -11 -26 -26 -25 -32 0 -7 7 -2 16 11 8 12 24 22 34
22 11 0 19 5 19 10 0 16 -15 12 -44 -11z"/>
<path d="M2070 2378 c0 -4 16 -28 35 -54 19 -25 35 -50 35 -55 0 -5 5 -9 11
-9 6 0 3 12 -6 28 -21 35 -74 99 -75 90z"/>
<path d="M2940 2330 c-14 -4 -38 -11 -54 -15 -15 -3 -26 -8 -23 -11 5 -5 67 9
103 23 9 3 14 -1 14 -14 0 -11 -15 -28 -37 -42 -28 -16 -32 -20 -13 -16 32 8
71 51 64 70 -7 17 -17 17 -54 5z"/>
<path d="M1851 2254 c-18 -14 -31 -35 -31 -47 1 -18 4 -15 15 11 8 18 22 35
32 38 10 3 27 9 38 14 19 8 19 9 -2 9 -12 1 -35 -11 -52 -25z"/>
<path d="M2076 2254 c-9 -8 -16 -21 -16 -27 0 -7 5 -4 11 6 5 9 19 17 30 17
11 0 17 5 14 10 -9 14 -21 12 -39 -6z"/>
<path d="M2043 2188 c37 -24 66 -47 64 -53 -2 -5 -14 -16 -28 -22 -13 -7 -18
-13 -11 -13 22 0 52 20 52 35 0 15 -110 95 -131 95 -7 0 17 -19 54 -42z"/>
<path d="M2506 2158 c7 -61 -10 -63 -36 -5 -11 23 -20 37 -20 30 0 -7 8 -28
17 -48 9 -19 13 -38 9 -42 -10 -10 -36 26 -36 49 0 10 -6 18 -14 18 -16 0 -62
-58 -53 -66 3 -3 13 8 23 25 10 17 22 31 26 31 11 0 10 -5 -7 -47 -8 -19 -15
-37 -15 -39 0 -6 82 -46 86 -42 2 2 -12 12 -31 23 -20 10 -35 26 -35 36 0 23
16 33 24 14 6 -17 46 -21 46 -4 0 5 5 7 10 4 17 -11 23 24 12 68 l-11 42 5
-47z"/>
<path d="M1925 2170 c-10 -11 -13 -20 -7 -20 7 0 12 4 12 9 0 5 12 14 28 19
22 9 24 11 6 11 -11 1 -29 -8 -39 -19z"/>
<path d="M2058 2056 c-49 -15 -57 -25 -34 -42 21 -15 96 -19 96 -5 0 4 -11 6
-25 3 -30 -5 -75 5 -75 17 0 5 17 12 38 16 40 6 81 26 52 24 -8 -1 -32 -6 -52
-13z"/>
<path d="M1702 2023 c14 -9 31 -27 37 -40 7 -15 19 -23 33 -22 15 0 18 3 8 6
-8 3 -28 21 -46 40 -17 18 -38 33 -45 33 -8 0 -2 -8 13 -17z"/>
<path d="M3111 1957 c-20 -33 -20 -36 -5 -81 9 -25 20 -48 25 -52 13 -8 11 7
-6 36 -19 33 -19 70 1 98 9 13 14 25 11 28 -3 3 -14 -10 -26 -29z"/>
<path d="M3060 1956 c-15 -39 -13 -62 10 -106 28 -56 32 -50 7 10 -18 43 -19
55 -9 82 6 17 10 34 7 36 -2 3 -9 -7 -15 -22z"/>
<path d="M3017 1953 c-21 -20 12 -129 45 -149 7 -4 -1 14 -16 40 -20 34 -27
58 -24 82 4 37 4 37 -5 27z"/>
<path d="M1686 1898 c8 -45 61 -158 86 -185 l20 -21 80 37 81 37 71 -38 c39
-21 76 -38 82 -38 11 0 39 148 30 157 -6 7 -14 -25 -21 -89 l-6 -57 -72 35
c-59 28 -73 39 -75 60 -2 15 2 30 8 34 16 10 4 30 -17 30 -8 0 -31 14 -50 30
-32 29 -37 30 -110 26 -42 -3 -84 -1 -94 5 -17 8 -18 6 -13 -23z"/>
<path d="M2260 1870 c19 -17 44 -36 55 -41 11 -6 4 4 -15 21 -19 17 -44 36
-55 41 -11 6 -4 -4 15 -21z"/>
</g>
</svg>
