<?xml version="1.0" standalone="no"?>
<!DOCTYPE svg PUBLIC "-//W3C//DTD SVG 20010904//EN"
 "http://www.w3.org/TR/2001/REC-SVG-20010904/DTD/svg10.dtd">
<svg version="1.0" xmlns="http://www.w3.org/2000/svg"
 width="512.000000pt" height="513.000000pt" viewBox="0 0 512.000000 513.000000"
 preserveAspectRatio="xMidYMid meet">
<metadata>
Created by potrace 1.16, written by Peter Selinger 2001-2019
</metadata>
<g transform="translate(0.000000,513.000000) scale(0.100000,-0.100000)"
fill="#000000" stroke="none">
<path d="M3310 5105 c-47 -13 -110 -33 -140 -45 -213 -83 -441 -273 -531 -442
-142 -264 -176 -374 -186 -593 -23 -509 311 -991 797 -1148 131 -42 204 -52
385 -51 150 0 181 3 266 26 205 56 379 156 530 307 167 167 273 364 319 591
19 89 21 129 17 265 -3 102 -10 185 -21 230 -91 369 -358 679 -704 816 -146
58 -216 69 -442 68 -183 0 -214 -3 -290 -24z m333 -547 c47 -25 46 -15 47
-557 l0 -515 -22 -23 c-23 -25 -74 -31 -108 -13 -36 19 -40 61 -40 451 0 209
-3 379 -7 379 -5 0 -17 -7 -27 -15 -51 -38 -126 3 -126 69 0 31 11 44 98 126
118 112 139 123 185 98z"/>
</g>
</svg>
