<?xml version="1.0" standalone="no"?>
<!DOCTYPE svg PUBLIC "-//W3C//DTD SVG 20010904//EN"
 "http://www.w3.org/TR/2001/REC-SVG-20010904/DTD/svg10.dtd">
<svg version="1.0" xmlns="http://www.w3.org/2000/svg"
 width="512.000000pt" height="512.000000pt" viewBox="0 0 512.000000 512.000000"
 preserveAspectRatio="xMidYMid meet">
<metadata>
Created by potrace 1.16, written by Peter Selinger 2001-2019
</metadata>
<g transform="translate(0.000000,512.000000) scale(0.100000,-0.100000)"
fill="#000000" stroke="none">
<path d="M558 3418 c-111 -254 -91 -561 52 -798 27 -46 50 -84 50 -86 0 -1
-24 -17 -52 -35 -245 -156 -445 -420 -543 -712 -58 -173 -67 -255 -63 -573 l3
-280 37 -75 c44 -89 115 -171 201 -232 70 -50 212 -124 251 -131 l26 -5 0 854
0 854 483 4 c514 4 522 5 667 58 125 46 276 156 355 260 l45 58 -82 -44 c-46
-24 -123 -56 -173 -71 -82 -25 -104 -28 -260 -28 -137 -1 -184 3 -240 18 -288
78 -507 260 -636 529 -55 115 -79 219 -87 370 l-7 129 -27 -64z"/>
<path d="M3025 2340 c4 -8 19 -30 33 -49 25 -33 25 -35 7 -45 -65 -38 -224
-167 -286 -234 -183 -196 -294 -405 -351 -667 -16 -73 -21 -143 -25 -362 -5
-256 -4 -275 16 -341 29 -96 106 -201 201 -274 77 -60 216 -138 244 -138 15 0
16 78 16 845 l0 845 443 0 442 1 -90 23 c-244 64 -453 186 -607 355 -28 31
-47 49 -43 41z"/>
</g>
</svg>
