<?xml version="1.0" standalone="no"?>
<!DOCTYPE svg PUBLIC "-//W3C//DTD SVG 20010904//EN"
 "http://www.w3.org/TR/2001/REC-SVG-20010904/DTD/svg10.dtd">
<svg version="1.0" xmlns="http://www.w3.org/2000/svg"
 width="512.000000pt" height="512.000000pt" viewBox="0 0 512.000000 512.000000"
 preserveAspectRatio="xMidYMid meet">
<metadata>
Created by potrace 1.16, written by Peter Selinger 2001-2019
</metadata>
<g transform="translate(0.000000,512.000000) scale(0.100000,-0.100000)"
fill="#000000" stroke="none">
<path d="M3125 2273 c-116 -79 -324 -147 -482 -160 l-83 -6 0 -1055 0 -1055
132 7 c461 23 910 172 1289 426 91 62 275 205 297 232 10 13 11 41 2 145 -36
421 -196 775 -484 1072 -143 147 -346 294 -500 361 -25 11 -66 29 -90 39 l-44
19 -37 -25z"/>
</g>
</svg>
